<svg width="9" height="16" viewBox="0 0 9 16" fill="none" xmlns="http://www.w3.org/2000/svg">
    <path
        d="M8.6437 0.306029C8.54694 0.209022 8.43199 0.132058 8.30544 0.0795442C8.17889 0.0270307 8.04322 0 7.9062 0C7.76919 0 7.63352 0.0270307 7.50697 0.0795442C7.38041 0.132058 7.26547 0.209022 7.1687 0.306029L0.243704 7.23103C0.166451 7.30812 0.105161 7.3997 0.063343 7.50051C0.0215252 7.60132 0 7.70939 0 7.81853C0 7.92767 0.0215252 8.03574 0.063343 8.13655C0.105161 8.23736 0.166451 8.32893 0.243704 8.40603L7.1687 15.331C7.57704 15.7394 8.23537 15.7394 8.6437 15.331C9.05204 14.9227 9.05204 14.2644 8.6437 13.856L2.61037 7.81436L8.65204 1.7727C9.05204 1.3727 9.05204 0.706029 8.6437 0.306029Z"
        fill="#FFF2FB" />
</svg>