<svg width="12" height="17" viewBox="0 0 12 17" fill="none" xmlns="http://www.w3.org/2000/svg">
    <path
        d="M5.99996 10.6667C7.38329 10.6667 8.49163 9.55002 8.49163 8.16669L8.49996 3.16669C8.49996 1.78335 7.38329 0.666687 5.99996 0.666687C4.61663 0.666687 3.49996 1.78335 3.49996 3.16669V8.16669C3.49996 9.55002 4.61663 10.6667 5.99996 10.6667ZM10.4166 8.16669C10.4166 10.6667 8.29996 12.4167 5.99996 12.4167C3.69996 12.4167 1.58329 10.6667 1.58329 8.16669H0.166626C0.166626 11.0084 2.43329 13.3584 5.16663 13.7667V16.5H6.83329V13.7667C9.56663 13.3667 11.8333 11.0167 11.8333 8.16669H10.4166Z"
        fill="#FFF2FB" />
</svg>