<svg width="20" height="20" viewBox="0 0 20 20" fill="none" xmlns="http://www.w3.org/2000/svg">
    <g clip-path="url(#clip0_402_10)">
        <path fill-rule="evenodd" clip-rule="evenodd"
            d="M8.5 0H11.5L12.1781 4.40757C11.5029 4.14441 10.7683 4 10 4C9.23169 4 8.4971 4.14441 7.82191 4.40757L8.5 0ZM7.58579 4.50548L3.98959 1.86827L1.86827 3.98959L4.50548 7.58579C5.10954 6.21299 6.21299 5.10954 7.58579 4.50548ZM4.40757 7.82191L0 8.5V11.5L4.40757 12.1781C4.14441 11.5029 4 10.7683 4 10C4 9.23169 4.14441 8.4971 4.40757 7.82191ZM4.50548 12.4142L1.86827 16.0104L3.98959 18.1317L7.58579 15.4945C6.21299 14.8905 5.10954 13.787 4.50548 12.4142ZM7.82191 15.5924L8.5 20H11.5L12.1781 15.5924C11.5029 15.8556 10.7683 16 10 16C9.23169 16 8.4971 15.8556 7.82191 15.5924ZM12.4142 15.4945L16.0104 18.1317L18.1317 16.0104L15.4945 12.4142C14.8905 13.787 13.787 14.8905 12.4142 15.4945ZM15.5924 12.1781L20 11.5V8.5L15.5924 7.82191C15.8556 8.4971 16 9.23169 16 10C16 10.7683 15.8556 11.5029 15.5924 12.1781ZM15.4945 7.58579L18.1317 3.98959L16.0104 1.86827L12.4142 4.50548C13.787 5.10954 14.8905 6.21299 15.4945 7.58579Z"
            fill="#FFF2FB" />
        <path fill-rule="evenodd" clip-rule="evenodd"
            d="M10 17C13.866 17 17 13.866 17 10C17 6.13401 13.866 3 10 3C6.13401 3 3 6.13401 3 10C3 13.866 6.13401 17 10 17ZM10 14C12.2091 14 14 12.2091 14 10C14 7.79086 12.2091 6 10 6C7.79086 6 6 7.79086 6 10C6 12.2091 7.79086 14 10 14Z"
            fill="#FFF2FB" />
    </g>
    <defs>
        <clipPath id="clip0_402_10">
            <rect width="20" height="20" fill="white" />
        </clipPath>
    </defs>
</svg>